<svg xmlns="http://www.w3.org/2000/svg" enable-background="new 0 0 512 512" viewBox="0 0 512 512"><path fill="#ffb800" d="M399.281,315.922v44.58c0,11.785-9.545,21.33-21.33,21.33H32.031c-11.785,0-21.33-9.545-21.33-21.33v-74.815l8.586-26.823h110.276v35.728c0,11.732,9.545,21.33,21.33,21.33H399.281z"/><path fill="#fff" d="M501.294,264.78v69.981c0,11.78-9.55,21.33-21.33,21.33h-30.234c-7.029,0-13.607-3.463-17.585-9.258l-42.146-61.396V144.845h53.511c8.928,0,16.911,5.56,20.007,13.934l36.454,98.606C500.846,259.752,501.294,262.256,501.294,264.78z"/><path fill="#fff" d="M417.648,315.468H168.404V115.072c0-11.78,9.55-21.33,21.33-21.33h192.369c10.038,0,18.717,6.999,20.845,16.808l38.146,175.841C444.337,301.342,432.947,315.468,417.648,315.468z"/><circle cx="93.117" cy="381.817" r="36.439" fill="#fff"/><circle cx="300.558" cy="381.817" r="36.439" fill="#fff"/><path d="M509.974,253.687l-36.453-98.605c-4.622-12.503-16.682-20.903-30.011-20.903h-24.522l-5.617-25.892c-3.174-14.607-16.323-25.21-31.269-25.21H189.734c-17.643,0-31.995,14.352-31.995,31.995v190.161h-6.853c-5.882,0-10.665-4.786-10.665-10.668v-35.679v-85.833c0-17.643-14.352-31.995-31.995-31.995h-39.03c-13.967,0-26.209,8.934-30.469,22.231c-4.691,14.642-31.98,99.814-38.179,119.161c-0.336,1.052-0.508,2.151-0.508,3.255v74.78c0,17.643,14.352,31.995,31.995,31.995h15.243c4.851,20.847,23.538,36.442,45.839,36.442s40.99-15.596,45.841-36.442h115.76c4.851,20.847,23.541,36.442,45.841,36.442s40.99-15.596,45.841-36.442h31.559c17.643,0,31.995-14.352,31.995-31.995v-27.133l13.402,19.525c5.97,8.691,15.831,13.878,26.376,13.878h30.235c17.643,0,31.995-14.352,31.995-31.995v-69.979C511.96,260.985,511.291,257.254,509.974,253.687z M179.069,115.073c0-5.882,4.783-10.665,10.665-10.665h192.369c4.981,0,9.366,3.536,10.423,8.402l38.145,175.843c0.859,3.958-0.107,8.035-2.651,11.188c-2.541,3.153-6.322,4.96-10.371,4.96h-238.58V115.073z M69.196,162.388h39.03c5.882,0,10.665,4.783,10.665,10.665v75.168H33.913l25.128-78.425C60.46,165.364,64.54,162.388,69.196,162.388z M93.116,407.592c-14.211,0-25.772-11.566-25.772-25.777c0-14.211,11.561-25.772,25.772-25.772s25.775,11.561,25.775,25.772C118.891,396.026,107.328,407.592,93.116,407.592z M300.558,407.592c-14.211,0-25.775-11.566-25.775-25.777c0-14.211,11.563-25.772,25.775-25.772s25.775,11.561,25.775,25.772C326.333,396.026,314.77,407.592,300.558,407.592z M388.623,360.485c0,5.879-4.783,10.665-10.665,10.665h-31.559c-4.852-20.843-23.541-36.437-45.841-36.437c-22.3,0-40.988,15.594-45.841,36.437H138.957c-4.852-20.843-23.541-36.437-45.841-36.437S52.13,350.307,47.278,371.15H32.035c-5.882,0-10.665-4.786-10.665-10.665v-73.114l5.71-17.82h91.812v25.014c0,17.646,14.352,31.998,31.995,31.998h237.737V360.485z M490.63,334.76c0,5.879-4.783,10.665-10.665,10.665H449.73c-3.518,0-6.804-1.729-8.793-4.624l-11.493-16.744c5.878-2.122,11.136-5.81,15.18-10.825c6.614-8.202,9.124-18.807,6.892-29.1l-27.902-128.623h19.895c4.442,0,8.462,2.802,10.004,6.968c38.027,103.521,37.117,98.791,37.117,102.304V334.76z"/><path d="M353.144 159.935c-1.351-5.731-7.103-9.282-12.826-7.936-5.733 1.351-9.288 7.095-7.936 12.826l19.898 84.448c1.35 5.724 7.079 9.286 12.826 7.936 5.733-1.351 9.288-7.095 7.936-12.826L353.144 159.935zM295.509 159.935c-1.351-5.731-7.098-9.282-12.826-7.936-5.733 1.351-9.288 7.095-7.936 12.826l19.898 84.448c1.35 5.724 7.079 9.286 12.826 7.936 5.733-1.351 9.288-7.095 7.936-12.826L295.509 159.935zM237.873 159.935c-1.354-5.731-7.108-9.282-12.826-7.936-5.733 1.351-9.288 7.095-7.936 12.826l19.898 84.448c1.35 5.724 7.079 9.286 12.826 7.936 5.733-1.351 9.288-7.095 7.936-12.826L237.873 159.935z"/></svg>