<?xml version="1.0" encoding="UTF-8"?>
<!DOCTYPE svg PUBLIC "-//W3C//DTD SVG 1.1//EN" "http://www.w3.org/Graphics/SVG/1.1/DTD/svg11.dtd">
<svg version="1.1" xmlns="http://www.w3.org/2000/svg" xmlns:xlink="http://www.w3.org/1999/xlink" x="0" y="0" width="1224" height="792" viewBox="0, 0, 1224, 792">
  <g id="Layer_1">
    <path d="M155.725,213.225 L155.742,213.247 L156.449,213.247 L156.449,214.148 L264.804,352.345 L264.804,317.726 L374.164,457.205 L374.164,531.083 L264.804,531.083 L264.804,529.586 L156.449,391.388 L156.449,531.075 L47.089,531.075 L47.089,213.247 L155.697,213.247 L155.725,213.225 z" fill="#40AB00"/>
    <path d="M374.164,213.255 L374.164,213.495 L483.055,352.375 L483.055,213.285 L592.415,213.285 L592.415,247.596 C554.829,276.959 535.012,325.353 533.789,372.36 C534.062,419.522 555.584,468.094 592.404,497.64 L592.415,531.113 L483.055,531.113 L483.055,529.616 L374.164,390.736 L374.164,424.487 L264.804,285.008 L264.804,213.255 L374.164,213.255 z" fill="#FFDF00"/>
    <path d="M724.421,213.528 C779.084,217.807 815.172,236.083 848.209,279.449 C830.827,303.136 826.022,332.178 823.014,361.032 L776.351,361.032 C770.748,330.992 746.33,312.967 716.654,311.469 C682.916,311.469 655.565,338.819 655.565,372.558 C655.565,406.297 682.916,433.647 716.654,433.647 C725.18,433.106 734.467,432.087 742.087,427.825 L710.567,427.825 L710.567,385.84 L775.975,385.84 L776.069,385.467 L823.2,385.467 C826.622,429.08 848.612,476.947 882.504,504.143 L882.844,531.465 L776.984,531.465 L776.984,519.36 C757.758,527.382 737.067,530.521 716.386,531.465 C626.018,531.465 552.759,460.231 552.759,372.36 C554.074,280.988 627.068,215.451 716.386,213.255 L724.421,213.528 z" fill="#40AB01"/>
    <path d="M1005.755,213.255 C1092.051,214.302 1159.905,275.295 1168.842,361.032 L1065.72,361.032 C1060.117,330.992 1035.699,312.967 1006.023,311.469 C972.284,311.469 944.934,338.819 944.933,372.558 C944.934,406.297 972.284,433.647 1006.023,433.647 C1034.514,433.133 1059.682,413.69 1065.437,385.467 L1168.656,385.467 C1160.717,471.162 1089.855,529.395 1005.755,531.465 C915.386,531.465 842.128,460.231 842.128,372.36 C842.128,284.489 915.386,213.255 1005.755,213.255 z" fill="#40AB01"/>
    <path d="M1030.824,546.224 C1035.397,546.224 1039.208,547.988 1042.148,551.515 C1044.979,554.882 1046.667,559.532 1047.266,565.305 L1041.059,565.305 C1040.406,561.537 1039.208,558.811 1037.411,557.047 C1035.669,555.283 1033.437,554.482 1030.715,554.481 C1026.632,554.482 1023.583,556.486 1021.514,560.655 C1019.608,564.343 1018.683,569.474 1018.683,576.048 C1018.683,582.782 1019.608,587.993 1021.459,591.601 C1023.474,595.449 1026.632,597.454 1030.878,597.453 C1033.655,597.454 1035.942,596.411 1037.684,594.487 C1039.535,592.323 1040.841,589.036 1041.604,584.706 L1047.81,584.706 C1046.939,591.441 1044.925,596.652 1041.713,600.42 C1038.718,603.947 1035.125,605.711 1030.932,605.711 C1024.454,605.711 1019.608,602.665 1016.451,596.732 C1013.674,591.601 1012.313,584.706 1012.313,576.048 C1012.313,567.55 1013.729,560.575 1016.614,555.283 C1019.881,549.19 1024.617,546.224 1030.824,546.224 z" fill="#40AB01"/>
    <path d="M108.659,546.224 C114.594,546.224 119.276,549.03 122.706,554.722 C125.972,560.094 127.606,567.229 127.605,576.048 C127.606,584.867 125.972,591.922 122.706,597.293 C119.276,602.905 114.594,605.711 108.659,605.711 C102.67,605.711 97.988,602.825 94.613,597.213 C91.346,591.761 89.767,584.706 89.767,576.048 C89.767,567.309 91.346,560.254 94.613,554.802 C97.988,549.03 102.67,546.224 108.659,546.224 z M108.659,554.481 C104.63,554.482 101.527,556.486 99.295,560.494 C97.172,564.343 96.137,569.474 96.137,576.048 C96.137,582.542 97.172,587.673 99.295,591.521 C101.473,595.449 104.63,597.454 108.659,597.453 C112.688,597.454 115.791,595.529 117.969,591.761 C120.092,587.993 121.181,582.782 121.181,576.048 C121.181,569.313 120.092,564.022 117.969,560.174 C115.791,556.326 112.688,554.482 108.659,554.481 z" fill="#40AB01"/>
    <path d="M849.363,546.224 C853.937,546.224 857.748,547.988 860.688,551.515 C863.519,554.882 865.207,559.532 865.805,565.305 L859.599,565.305 C858.946,561.537 857.748,558.811 855.951,557.047 C854.209,555.283 851.977,554.482 849.255,554.481 C845.171,554.482 842.122,556.486 840.054,560.655 C838.148,564.343 837.223,569.474 837.223,576.048 C837.223,582.782 838.148,587.993 839.999,591.601 C842.014,595.449 845.171,597.454 849.418,597.453 C852.195,597.454 854.481,596.411 856.223,594.487 C858.074,592.323 859.381,589.036 860.143,584.706 L866.35,584.706 C865.479,591.441 863.464,596.652 860.252,600.42 C857.258,603.947 853.665,605.711 849.472,605.711 C842.994,605.711 838.148,602.665 834.99,596.732 C832.214,591.601 830.853,584.706 830.853,576.048 C830.853,567.55 832.268,560.575 835.154,555.283 C838.42,549.19 843.157,546.224 849.363,546.224 z" fill="#40AB01"/>
    <path d="M755.122,546.224 C760.131,546.224 764.051,547.827 766.936,551.114 C769.713,554.321 771.455,559.051 772.163,565.465 L765.738,565.465 C765.194,561.777 763.996,559.051 762.254,557.207 C760.457,555.364 758.062,554.482 755.122,554.481 C751.474,554.482 748.589,556.245 746.465,559.933 C744.124,563.781 742.981,569.153 742.981,576.208 C742.981,582.943 744.015,588.154 746.084,591.761 C748.316,595.61 751.801,597.534 756.537,597.534 C758.388,597.534 760.131,597.213 761.764,596.572 C763.288,595.93 764.649,595.048 765.956,593.926 L765.956,582.141 L755.666,582.141 L755.666,574.124 L772.326,574.124 L772.326,598.335 C770.257,600.741 767.916,602.504 765.248,603.787 C762.417,605.07 759.314,605.711 755.83,605.711 C749.623,605.711 744.832,602.825 741.402,597.053 C738.19,591.681 736.611,584.706 736.611,576.208 C736.611,567.63 738.19,560.575 741.402,555.043 C744.778,549.11 749.351,546.224 755.122,546.224 z" fill="#40AB01"/>
    <path d="M467.659,546.224 C472.233,546.224 476.044,547.988 478.984,551.515 C481.815,554.882 483.503,559.532 484.102,565.305 L477.895,565.305 C477.242,561.537 476.044,558.811 474.247,557.047 C472.505,555.283 470.273,554.482 467.551,554.481 C463.468,554.482 460.419,556.486 458.35,560.655 C456.445,564.343 455.519,569.474 455.519,576.048 C455.519,582.782 456.445,587.993 458.295,591.601 C460.31,595.449 463.468,597.454 467.714,597.453 C470.491,597.454 472.778,596.411 474.52,594.487 C476.371,592.323 477.678,589.036 478.44,584.706 L484.646,584.706 C483.775,591.441 481.761,596.652 478.548,600.42 C475.554,603.947 471.961,605.711 467.769,605.711 C461.29,605.711 456.445,602.665 453.287,596.732 C450.51,591.601 449.149,584.706 449.149,576.048 C449.149,567.55 450.565,560.575 453.45,555.283 C456.717,549.19 461.453,546.224 467.66,546.224 z" fill="#FFDF00"/>
    <path d="M889.597,546.224 C895.532,546.224 900.214,549.03 903.644,554.722 C906.91,560.094 908.544,567.229 908.544,576.048 C908.544,584.867 906.91,591.922 903.644,597.293 C900.214,602.905 895.532,605.711 889.597,605.711 C883.609,605.711 878.927,602.825 875.551,597.213 C872.284,591.761 870.706,584.706 870.705,576.048 C870.706,567.309 872.284,560.254 875.551,554.802 C878.927,549.03 883.609,546.224 889.597,546.224 z M889.597,554.481 C885.569,554.482 882.465,556.486 880.233,560.494 C878.11,564.343 877.075,569.474 877.075,576.048 C877.075,582.542 878.11,587.673 880.233,591.521 C882.411,595.449 885.569,597.454 889.597,597.453 C893.626,597.454 896.73,595.529 898.907,591.761 C901.031,587.993 902.119,582.782 902.119,576.048 C902.119,569.313 901.031,564.022 898.907,560.174 C896.73,556.326 893.626,554.482 889.597,554.481 z" fill="#40AB01"/>
    <path d="M1118.532,546.224 C1124.467,546.224 1129.149,549.03 1132.579,554.722 C1135.845,560.094 1137.479,567.229 1137.479,576.048 C1137.479,584.867 1135.845,591.922 1132.579,597.293 C1129.149,602.905 1124.467,605.711 1118.532,605.711 C1112.544,605.711 1107.861,602.825 1104.486,597.213 C1101.219,591.761 1099.64,584.706 1099.64,576.048 C1099.64,567.309 1101.219,560.254 1104.486,554.802 C1107.861,549.03 1112.544,546.224 1118.532,546.224 z M1118.532,554.481 C1114.504,554.482 1111.4,556.486 1109.168,560.494 C1107.045,564.343 1106.01,569.474 1106.01,576.048 C1106.01,582.542 1107.045,587.673 1109.168,591.521 C1111.346,595.449 1114.504,597.454 1118.532,597.453 C1122.561,597.454 1125.664,595.529 1127.842,591.761 C1129.965,587.993 1131.054,582.782 1131.054,576.048 C1131.054,569.313 1129.965,564.022 1127.842,560.174 C1125.664,556.326 1122.561,554.482 1118.532,554.481 z" fill="#40AB01"/>
    <path d="M564.515,546.223 C569.524,546.224 573.444,547.827 576.329,551.114 C579.106,554.321 580.848,559.051 581.556,565.465 L575.131,565.465 C574.587,561.777 573.389,559.051 571.647,557.207 C569.85,555.363 567.455,554.482 564.515,554.481 C560.867,554.482 557.982,556.245 555.858,559.933 C553.517,563.781 552.374,569.153 552.374,576.208 C552.374,582.942 553.409,588.154 555.477,591.761 C557.71,595.61 561.194,597.534 565.93,597.534 C567.782,597.534 569.524,597.213 571.157,596.572 C572.682,595.93 574.043,595.048 575.349,593.926 L575.349,582.141 L565.059,582.141 L565.059,574.123 L581.719,574.123 L581.719,598.335 C579.65,600.741 577.309,602.504 574.641,603.787 C571.81,605.07 568.707,605.711 565.223,605.711 C559.016,605.711 554.225,602.825 550.795,597.053 C547.583,591.681 546.004,584.706 546.004,576.208 C546.004,567.63 547.583,560.575 550.795,555.043 C554.171,549.11 558.744,546.224 564.515,546.224 z" fill="#40AB01"/>
    <path d="M1149.837,547.346 L1169.056,588.634 L1169.274,588.634 L1169.274,547.346 L1175.698,547.346 L1175.698,604.589 L1169.491,604.589 L1150.055,562.739 L1149.837,562.739 L1149.837,604.589 L1143.467,604.589 L1143.467,547.346 L1149.837,547.346 z" fill="#40AB01"/>
    <path d="M953.078,547.346 L953.078,596.571 L974.093,596.571 L974.093,604.589 L946.763,604.589 L946.763,547.346 L953.078,547.346 z" fill="#40AB01"/>
    <path d="M719.57,547.346 L734.433,604.589 L727.628,604.589 L724.089,590.238 L707.81,590.238 L704.271,604.589 L697.466,604.589 L712.329,547.346 L719.57,547.346 z M716.085,557.448 L715.868,557.448 L709.716,582.541 L722.183,582.541 L716.085,557.448 z" fill="#40AB01"/>
    <path d="M382.347,547.346 L401.565,588.634 L401.783,588.634 L401.783,547.346 L408.207,547.346 L408.207,604.589 L402.001,604.589 L382.565,562.739 L382.347,562.739 L382.347,604.589 L375.977,604.589 L375.977,547.346 L382.347,547.346 z" fill="#FFDF00"/>
    <path d="M211.394,547.346 L211.394,571.237 L231.103,571.237 L231.103,547.346 L237.473,547.346 L237.473,604.589 L231.103,604.589 L231.103,579.254 L211.394,579.254 L211.394,604.589 L205.024,604.589 L205.024,547.346 L211.394,547.346 z" fill="#40AB01"/>
    <path d="M200.396,547.346 L200.396,555.363 L187.656,555.363 L187.656,604.589 L181.287,604.589 L181.287,555.363 L168.547,555.363 L168.547,547.346 L200.396,547.346 z" fill="#40AB01"/>
    <path d="M324.365,547.346 L343.583,588.634 L343.801,588.634 L343.801,547.346 L350.225,547.346 L350.225,604.589 L344.019,604.589 L324.582,562.739 L324.365,562.739 L324.365,604.589 L317.994,604.589 L317.994,547.346 L324.365,547.346 z" fill="#40AB01"/>
    <path d="M497.005,547.346 L497.005,574.364 L515.08,547.346 L523.138,547.346 L506.042,571.878 L525.696,604.589 L517.094,604.589 L501.741,578.052 L497.005,584.866 L497.005,604.589 L490.635,604.589 L490.635,547.346 L497.005,547.346 z" fill="#FFDF00"/>
    <path d="M681.514,547.346 C685.38,547.346 688.428,548.709 690.606,551.435 C692.621,554.001 693.655,557.448 693.655,561.777 C693.655,564.984 693.111,567.71 692.076,569.955 C691.042,572.039 689.572,573.562 687.612,574.685 C690.171,575.406 692.076,576.93 693.383,579.254 C694.635,581.499 695.288,584.626 695.288,588.474 C695.288,594.247 693.927,598.496 691.259,601.221 C688.973,603.466 685.706,604.589 681.568,604.589 L663.711,604.589 L663.711,547.346 L681.514,547.346 z M680.806,579.094 L670.081,579.094 L670.081,596.892 L680.643,596.892 C683.039,596.892 684.944,596.331 686.305,595.209 C688.047,593.766 688.918,591.521 688.918,588.314 C688.918,585.027 688.265,582.702 687.013,581.259 C685.706,579.816 683.637,579.094 680.806,579.094 z M679.935,555.043 L670.081,555.043 L670.081,571.397 L679.826,571.397 C682.549,571.398 684.454,570.676 685.597,569.393 C686.686,568.031 687.285,565.866 687.285,562.899 C687.285,560.174 686.686,558.169 685.597,556.967 C684.4,555.684 682.549,555.043 679.935,555.043 z" fill="#40AB01"/>
    <path d="M1007.032,547.346 L1007.032,555.363 L985.363,555.363 L985.363,571.237 L1005.725,571.237 L1005.725,579.254 L985.363,579.254 L985.363,596.571 L1007.957,596.571 L1007.957,604.589 L978.993,604.589 L978.993,547.346 L1007.032,547.346 z" fill="#40AB01"/>
    <path d="M1082.654,547.346 L1082.654,555.363 L1069.914,555.363 L1069.914,604.589 L1063.544,604.589 L1063.544,555.363 L1050.804,555.363 L1050.804,547.346 L1082.654,547.346 z" fill="#40AB01"/>
    <path d="M920.848,547.346 L920.848,596.571 L941.863,596.571 L941.863,604.589 L914.532,604.589 L914.532,547.346 L920.848,547.346 z" fill="#40AB01"/>
    <path d="M607.09,547.346 L621.953,604.589 L615.147,604.589 L611.608,590.238 L595.33,590.238 L591.791,604.589 L584.985,604.589 L599.848,547.346 L607.09,547.346 z M603.605,557.448 L603.387,557.448 L597.235,582.541 L609.703,582.541 L603.605,557.448 z" fill="#40AB01"/>
    <path d="M443.868,547.346 L443.868,555.363 L422.199,555.363 L422.199,571.237 L442.561,571.237 L442.561,579.254 L422.199,579.254 L422.199,596.571 L444.794,596.571 L444.794,604.589 L415.83,604.589 L415.83,547.346 L443.868,547.346 z" fill="#FFDF00"/>
    <path d="M273.133,547.346 L273.133,555.363 L251.464,555.363 L251.464,571.237 L271.826,571.237 L271.826,579.254 L251.464,579.254 L251.464,596.571 L274.058,596.571 L274.058,604.589 L245.094,604.589 L245.094,547.346 L273.133,547.346 z" fill="#40AB01"/>
    <path d="M150.907,547.346 C154.882,547.346 158.039,548.629 160.326,551.275 C162.722,554.161 163.974,558.33 163.974,563.781 C163.974,566.748 163.429,569.393 162.34,571.718 C161.143,574.284 159.455,575.968 157.386,576.769 L157.386,576.929 C160.762,578.052 162.667,581.339 163.103,586.951 L163.756,596.17 C163.974,599.698 164.79,602.504 166.097,604.589 L159.182,604.589 C158.257,602.825 157.713,600.34 157.495,597.133 L157.005,590.077 C156.787,586.951 156.134,584.706 155.045,583.343 C153.902,581.9 152.214,581.259 150.036,581.259 L139.964,581.259 L139.964,604.589 L133.594,604.589 L133.594,547.346 L150.907,547.346 z M150.036,555.363 L139.964,555.363 L139.964,573.241 L150.036,573.241 C152.541,573.242 154.446,572.44 155.753,570.917 C156.951,569.313 157.549,567.068 157.549,564.182 C157.549,561.056 156.951,558.811 155.753,557.448 C154.555,556.005 152.649,555.363 150.036,555.363 z" fill="#40AB01"/>
    <path d="M297.36,547.346 C301.335,547.346 304.493,548.629 306.779,551.275 C309.175,554.161 310.427,558.33 310.427,563.781 C310.427,566.748 309.882,569.393 308.794,571.718 C307.596,574.284 305.908,575.968 303.839,576.769 L303.839,576.929 C307.215,578.052 309.12,581.339 309.556,586.951 L310.209,596.17 C310.427,599.698 311.244,602.504 312.55,604.589 L305.635,604.589 C304.71,602.825 304.166,600.34 303.948,597.133 L303.458,590.077 C303.24,586.951 302.587,584.706 301.498,583.343 C300.355,581.9 298.667,581.259 296.489,581.259 L286.417,581.259 L286.417,604.589 L280.047,604.589 L280.047,547.346 L297.36,547.346 z M296.489,555.363 L286.417,555.363 L286.417,573.241 L296.489,573.241 C298.994,573.242 300.899,572.44 302.206,570.917 C303.404,569.313 304.003,567.068 304.002,564.182 C304.003,561.056 303.404,558.811 302.206,557.448 C301.008,556.005 299.103,555.363 296.489,555.363 z" fill="#40AB01"/>
    <path d="M643.077,547.346 C647.051,547.346 650.209,548.629 652.496,551.275 C654.891,554.161 656.143,558.33 656.143,563.781 C656.143,566.748 655.599,569.393 654.51,571.718 C653.312,574.284 651.625,575.968 649.556,576.769 L649.556,576.929 C652.931,578.052 654.837,581.339 655.272,586.951 L655.926,596.17 C656.143,599.698 656.96,602.504 658.267,604.589 L651.352,604.589 C650.427,602.825 649.882,600.34 649.664,597.133 L649.175,590.077 C648.957,586.951 648.304,584.706 647.215,583.343 C646.071,581.9 644.384,581.259 642.206,581.259 L632.134,581.259 L632.134,604.589 L625.764,604.589 L625.764,547.346 L643.077,547.346 z M642.206,555.363 L632.134,555.363 L632.134,573.241 L642.206,573.241 C644.71,573.242 646.616,572.44 647.922,570.917 C649.12,569.313 649.719,567.068 649.719,564.182 C649.719,561.056 649.12,558.811 647.922,557.448 C646.725,556.005 644.819,555.363 642.206,555.363 z" fill="#40AB01"/>
    <path d="M807.442,547.346 L807.442,555.363 L785.773,555.363 L785.773,571.237 L806.135,571.237 L806.135,579.254 L785.773,579.254 L785.773,596.571 L808.367,596.571 L808.367,604.589 L779.403,604.589 L779.403,547.346 L807.442,547.346 z" fill="#40AB01"/>
    <path d="M1093.651,547.346 L1093.651,604.589 L1087.282,604.589 L1087.282,547.346 L1093.651,547.346 z" fill="#40AB01"/>
    <path d="M57.918,547.346 L77.136,588.634 L77.354,588.634 L77.354,547.346 L83.778,547.346 L83.778,604.589 L77.572,604.589 L58.136,562.739 L57.918,562.739 L57.918,604.589 L51.548,604.589 L51.548,547.346 L57.918,547.346 z" fill="#40AB01"/>
  </g>
</svg>
